<svg width="186" height="170" viewBox="0 0 186 170" fill="none" xmlns="http://www.w3.org/2000/svg">
<path d="M129.381 4.75269L56.5087 4.24013C24.8135 4.01719 0.293667 31.9593 4.63248 63.357L12.594 120.971C16.1502 146.704 38.1525 165.865 64.1306 165.852L121.345 165.824C147.369 165.811 169.375 146.562 172.853 120.773L180.549 63.7003C184.736 32.6482 160.713 4.97308 129.381 4.75269Z" fill="url(#paint0_linear_27_2)" stroke="url(#paint1_linear_27_2)" stroke-width="8"/>
<path d="M133.784 91.6649C133.784 102.671 129.412 113.227 121.629 121.01C113.846 128.793 103.291 133.165 92.2842 133.165M133.784 91.6649C133.784 80.6584 129.412 70.1027 121.629 62.32C113.846 54.5372 103.291 50.1649 92.2842 50.1649M133.784 91.6649H50.7842ZM92.2842 133.165C81.2777 133.165 70.722 128.793 62.9392 121.01C55.1565 113.227 50.7842 102.671 50.7842 91.6649M92.2842 133.165C99.9248 133.165 106.118 114.582 106.118 91.6649C106.118 68.7477 99.9248 50.1649 92.2842 50.1649M92.2842 133.165C84.6436 133.165 78.4508 114.582 78.4508 91.6649C78.4508 68.7477 84.6436 50.1649 92.2842 50.1649M50.7842 91.6649C50.7842 80.6584 55.1565 70.1027 62.9392 62.32C70.722 54.5372 81.2777 50.1649 92.2842 50.1649" fill="#141414"/>
<path d="M133.784 91.6649C133.784 102.671 129.412 113.227 121.629 121.01C113.846 128.793 103.291 133.165 92.2842 133.165M133.784 91.6649C133.784 80.6584 129.412 70.1027 121.629 62.32C113.846 54.5372 103.291 50.1649 92.2842 50.1649M133.784 91.6649H50.7842M92.2842 133.165C81.2777 133.165 70.722 128.793 62.9392 121.01C55.1565 113.227 50.7842 102.671 50.7842 91.6649M92.2842 133.165C99.9248 133.165 106.118 114.582 106.118 91.6649C106.118 68.7477 99.9248 50.1649 92.2842 50.1649M92.2842 133.165C84.6436 133.165 78.4508 114.582 78.4508 91.6649C78.4508 68.7477 84.6436 50.1649 92.2842 50.1649M92.2842 50.1649C81.2777 50.1649 70.722 54.5372 62.9392 62.32C55.1565 70.1027 50.7842 80.6584 50.7842 91.6649" stroke="url(#paint2_linear_27_2)" stroke-width="7" stroke-linecap="round" stroke-linejoin="round"/>
<path d="M119.789 118.758L141.097 118.73M130.438 115.193L130.443 118.744M132.326 135.611C129.588 132.784 127.395 129.476 125.857 125.853M136.688 141.82L149.118 141.803M134.031 147.15L142.886 129.382L151.788 147.127M137.103 118.736C135.398 128.983 128.816 137.586 119.819 142.071" stroke="#4A2E53" stroke-width="4" stroke-linecap="round" stroke-linejoin="round"/>
<defs>
<linearGradient id="paint0_linear_27_2" x1="92.43" y1="7.42489" x2="93.1489" y2="162.128" gradientUnits="userSpaceOnUse">
<stop stop-color="#070707"/>
<stop offset="1" stop-color="#1B1B1B"/>
</linearGradient>
<linearGradient id="paint1_linear_27_2" x1="92.43" y1="7.42489" x2="93.1492" y2="162.186" gradientUnits="userSpaceOnUse">
<stop stop-color="#DE8CFB"/>
<stop offset="1" stop-color="#4A2E53"/>
</linearGradient>
<linearGradient id="paint2_linear_27_2" x1="92.2842" y1="133.165" x2="92.2842" y2="50.1649" gradientUnits="userSpaceOnUse">
<stop stop-color="#4A2E53"/>
<stop offset="1" stop-color="#DE8CFB"/>
</linearGradient>
</defs>
</svg>
