<svg width="700" height="320" viewBox="0 0 700 320" fill="none" xmlns="http://www.w3.org/2000/svg">
<g clip-path="url(#clip0_206_209)">
<g filter="url(#filter0_f_206_209)">
<ellipse cx="720.5" cy="61" rx="113.5" ry="92" fill="#CE4FFB"/>
</g>
<g filter="url(#filter1_f_206_209)">
<ellipse cx="-25.5" cy="335" rx="113.5" ry="92" fill="#F465F6"/>
</g>
<g filter="url(#filter2_f_206_209)">
<ellipse cx="328.5" cy="124" rx="113.5" ry="92" fill="#803993"/>
</g>
<path d="M395.549 52.6862L305.046 52.0018C265.683 51.7041 235.231 89.015 240.62 130.94L250.507 207.872C254.924 242.233 282.249 267.819 314.512 267.801L385.569 267.764C417.889 267.746 445.219 242.043 449.539 207.607L459.097 131.399C464.297 89.9349 434.462 52.9805 395.549 52.6862Z" fill="url(#paint0_linear_206_209)" stroke="url(#paint1_linear_206_209)" stroke-width="8"/>
<path d="M401.017 168.74C401.017 183.436 395.588 197.531 385.922 207.924C376.256 218.317 363.147 224.154 349.477 224.154M401.017 168.74C401.017 154.043 395.588 139.948 385.922 129.556C376.256 119.163 363.147 113.325 349.477 113.325M349.477 224.154C335.808 224.154 322.698 218.317 313.033 207.924C303.367 197.531 297.937 183.436 297.937 168.74M349.477 224.154C358.966 224.154 366.658 199.341 366.658 168.74C366.658 138.138 358.966 113.325 349.477 113.325M349.477 224.154C339.988 224.154 332.297 199.341 332.297 168.74C332.297 138.138 339.988 113.325 349.477 113.325M297.937 168.74C297.937 154.043 303.367 139.948 313.033 129.556C322.698 119.163 335.808 113.325 349.477 113.325" fill="#141414"/>
<path d="M401.017 168.74C401.017 183.436 395.588 197.531 385.922 207.924C376.256 218.317 363.147 224.154 349.477 224.154M401.017 168.74C401.017 154.043 395.588 139.948 385.922 129.556C376.256 119.163 363.147 113.325 349.477 113.325M401.017 168.74H297.937M349.477 224.154C335.808 224.154 322.698 218.317 313.033 207.924C303.367 197.531 297.937 183.436 297.937 168.74M349.477 224.154C358.966 224.154 366.658 199.341 366.658 168.74C366.658 138.138 358.966 113.325 349.477 113.325M349.477 224.154C339.988 224.154 332.297 199.341 332.297 168.74C332.297 138.138 339.988 113.325 349.477 113.325M349.477 113.325C335.808 113.325 322.698 119.163 313.033 129.556C303.367 139.948 297.937 154.043 297.937 168.74" stroke="url(#paint2_linear_206_209)" stroke-width="7" stroke-linecap="round" stroke-linejoin="round"/>
<path d="M383.636 204.917L410.099 204.879M396.862 200.156L396.868 204.898M399.206 227.421C395.806 223.646 393.082 219.228 391.172 214.391M404.624 235.711L420.061 235.689M401.324 242.828L412.321 219.103L423.377 242.798M405.139 204.887C403.022 218.57 394.847 230.058 383.673 236.047" stroke="#4A2E53" stroke-width="4" stroke-linecap="round" stroke-linejoin="round"/>
</g>
<defs>
<filter id="filter0_f_206_209" x="307" y="-331" width="827" height="784" filterUnits="userSpaceOnUse" color-interpolation-filters="sRGB">
<feFlood flood-opacity="0" result="BackgroundImageFix"/>
<feBlend mode="normal" in="SourceGraphic" in2="BackgroundImageFix" result="shape"/>
<feGaussianBlur stdDeviation="150" result="effect1_foregroundBlur_206_209"/>
</filter>
<filter id="filter1_f_206_209" x="-439" y="-57" width="827" height="784" filterUnits="userSpaceOnUse" color-interpolation-filters="sRGB">
<feFlood flood-opacity="0" result="BackgroundImageFix"/>
<feBlend mode="normal" in="SourceGraphic" in2="BackgroundImageFix" result="shape"/>
<feGaussianBlur stdDeviation="150" result="effect1_foregroundBlur_206_209"/>
</filter>
<filter id="filter2_f_206_209" x="-85" y="-268" width="827" height="784" filterUnits="userSpaceOnUse" color-interpolation-filters="sRGB">
<feFlood flood-opacity="0" result="BackgroundImageFix"/>
<feBlend mode="normal" in="SourceGraphic" in2="BackgroundImageFix" result="shape"/>
<feGaussianBlur stdDeviation="150" result="effect1_foregroundBlur_206_209"/>
</filter>
<linearGradient id="paint0_linear_206_209" x1="349.658" y1="56.2544" x2="350.691" y2="262.828" gradientUnits="userSpaceOnUse">
<stop stop-color="#070707"/>
<stop offset="1" stop-color="#1B1B1B"/>
</linearGradient>
<linearGradient id="paint1_linear_206_209" x1="349.658" y1="56.2544" x2="350.691" y2="262.905" gradientUnits="userSpaceOnUse">
<stop stop-color="#DE8CFB"/>
<stop offset="1" stop-color="#4A2E53"/>
</linearGradient>
<linearGradient id="paint2_linear_206_209" x1="349.477" y1="224.154" x2="349.477" y2="113.325" gradientUnits="userSpaceOnUse">
<stop stop-color="#4A2E53"/>
<stop offset="1" stop-color="#DE8CFB"/>
</linearGradient>
<clipPath id="clip0_206_209">
<rect width="700" height="320" rx="16" fill="white"/>
</clipPath>
</defs>
</svg>
